<svg width="25" height="25" viewBox="0 0 25 25" fill="none" xmlns="http://www.w3.org/2000/svg">
<path d="M11.793 0.0144638C5.19045 0.328561 -0.0198282 5.82729 5.67279e-05 12.4371C0.00614913 14.4503 0.492187 16.3506 1.34969 18.0299L0.0333109 24.4196C-0.0378517 24.7654 0.273876 25.068 0.617251 24.9866L6.87846 23.5033C8.48711 24.3047 10.2939 24.7674 12.2061 24.7966C18.9545 24.8997 24.5814 19.5415 24.792 12.7955C25.0172 5.5643 19.0492 -0.331195 11.793 0.0144638ZM19.2641 19.2638C17.4305 21.0974 14.9924 22.1073 12.3991 22.1073C10.8807 22.1073 9.42686 21.7665 8.07807 21.0948L7.20635 20.6603L3.36729 21.5697L4.1753 17.6472L3.74587 16.8059C3.04558 15.4346 2.69053 13.9519 2.69053 12.3987C2.69053 9.80538 3.70043 7.36748 5.53399 5.53376C7.35122 3.71636 9.82905 2.6903 12.3993 2.6903C14.9923 2.6903 17.4304 3.7002 19.264 5.53376C21.0975 7.36732 22.1074 9.80546 22.1074 12.3985C22.1076 14.9688 21.0814 17.4465 19.2641 19.2638Z" fill="white"/>
<path d="M18.4167 15.0874L16.0149 14.3979C15.6994 14.3074 15.3592 14.397 15.1292 14.6314L14.5417 15.2297C14.2942 15.4822 13.9185 15.5631 13.5907 15.4305C12.4545 14.9707 10.0645 12.8457 9.45451 11.7831C9.27817 11.4764 9.30736 11.0933 9.52364 10.8132L10.0363 10.1499C10.2371 9.89009 10.2794 9.54088 10.1467 9.24049L9.13627 6.95517C8.89426 6.40787 8.19482 6.24845 7.73781 6.63498C7.06756 7.20199 6.27225 8.06331 6.1757 9.01778C6.0052 10.7006 6.72698 12.8216 9.45561 15.3687C12.6082 18.3115 15.1329 18.7 16.7769 18.3018C17.7093 18.0762 18.4544 17.1709 18.9244 16.4296C19.2452 15.9239 18.9917 15.2527 18.4167 15.0874Z" fill="white"/>
</svg>
