<svg width="75" height="75" viewBox="0 0 75 75" fill="none" xmlns="http://www.w3.org/2000/svg">
<g clip-path="url(#clip0)">
<path d="M36.4406 0.24231L2.85629 16.4555C2.43514 16.6588 2.16766 17.0851 2.16766 17.5527V57.4474C2.16766 57.915 2.43529 58.3413 2.85629 58.5446L36.4406 74.7578C37.1099 75.0809 37.8901 75.0809 38.5593 74.7578L72.1437 58.5446C72.5648 58.3413 72.8323 57.915 72.8323 57.4474V17.5527C72.8323 17.0851 72.5647 16.6588 72.1437 16.4555L38.5593 0.24231C37.8901 -0.0806885 37.1099 -0.0806885 36.4406 0.24231Z" fill="#FFE17D"/>
<path d="M2.37025 16.8857C2.24222 17.0807 2.16766 17.3102 2.16766 17.5526V57.4474C2.16766 57.915 2.43529 58.3412 2.85629 58.5446L36.4406 74.7576C36.7752 74.9192 37.1376 74.9999 37.5 74.9999V33.8449L2.37025 16.8857Z" fill="#FFC350"/>
<path d="M72.6297 16.8857C72.7577 17.0807 72.8323 17.3102 72.8323 17.5526V57.4473C72.8323 57.9149 72.5646 58.3412 72.1436 58.5445L38.5594 74.7575C38.2248 74.9191 37.8624 75 37.5 75V33.8449L72.6297 16.8857Z" fill="#FFD164"/>
<path d="M12.2178 55.3208C12.0406 55.3208 11.8597 55.2816 11.6896 55.1995L6.50449 52.6963C5.89775 52.4036 5.64434 51.6754 5.93701 51.0699C6.22852 50.4643 6.95903 50.212 7.56343 50.5024L12.7485 53.0058C13.3553 53.2985 13.6087 54.0266 13.316 54.6322C13.1067 55.0674 12.6712 55.3208 12.2178 55.3208Z" fill="#FFE17D"/>
<path d="M16.9902 52.2144C16.8129 52.2144 16.632 52.1751 16.4619 52.0931L6.51156 47.2898C5.90599 46.9972 5.6514 46.269 5.94408 45.6634C6.23558 45.059 6.96727 44.8056 7.57049 45.0959L17.5207 49.8992C18.1263 50.1919 18.3809 50.92 18.0882 51.5256C17.879 51.9608 17.4435 52.2144 16.9902 52.2144Z" fill="#FFF6D8"/>
<path d="M60.725 22.6132L25.4717 5.58252L16.1788 10.0869L51.5111 27.144L60.725 22.6132Z" fill="#FF8087"/>
<path d="M51.5111 27.144V40.3579C51.5111 40.8071 51.9806 41.1018 52.3852 40.9065L60.0363 37.2129C60.4575 37.0096 60.7249 36.5833 60.7249 36.1158V22.6134L51.5111 27.144Z" fill="#E6646E"/>
</g>
<defs>
<clipPath id="clip0">
<rect width="75" height="75" fill="white"/>
</clipPath>
</defs>
</svg>
