<svg width="82" height="75" viewBox="0 0 82 75" fill="none" xmlns="http://www.w3.org/2000/svg">
<g clip-path="url(#clip0)">
<path d="M12.3403 0H17.1343V9.89751H12.3403V0Z" fill="#C7C0DD"/>
<path d="M29.7882 0H34.5822V9.89751H29.7882V0Z" fill="#C7C0DD"/>
<path d="M47.236 0H52.0301V9.89751H47.236V0Z" fill="#A69FC4"/>
<path d="M64.6838 0H69.4778V9.89751H64.6838V0Z" fill="#A69FC4"/>
<path d="M0 23.5374V75H40.9091L52.0301 14.6272L0 23.5374Z" fill="#FFD652"/>
<path d="M81.8181 23.5374L40.9091 14.6272V75H81.8181V23.5374Z" fill="#FB9D46"/>
<path d="M10.1848 23.5374V65.664H40.909L51.1232 29.0969L40.909 15.8584L10.1848 23.5374Z" fill="#F2F2FC"/>
<path d="M71.6334 23.5374L40.9091 15.8584V65.664H71.6334V23.5374Z" fill="#E2D8FC"/>
<path d="M0 8.17957V23.5374H40.9091L48.498 15.8586L40.9091 8.17957H0Z" fill="#397CFF"/>
<path d="M40.9091 8.17957H81.8181V23.5376H40.9091V8.17957Z" fill="#4041D4"/>
<path d="M36.1288 56.2677L40.6593 57.7048L40.9091 57.043L42.7193 46.8517L40.9091 43.606L36.1288 56.2677Z" fill="#052E8A"/>
<path d="M32.2878 32.2479V36.6425H40.9091L43.2989 34.4452L40.9091 32.2479H32.2878Z" fill="#052E8A"/>
<path d="M48.5853 32.2479H40.9091V36.6425H43.5381L40.9091 43.606V57.043L48.5853 36.7107V32.2479Z" fill="#042468"/>
</g>
<defs>
<clipPath id="clip0">
<rect width="81.8181" height="75" fill="white"/>
</clipPath>
</defs>
</svg>
