<svg width="75" height="75" viewBox="0 0 75 75" fill="none" xmlns="http://www.w3.org/2000/svg">
<g clip-path="url(#clip0)">
<path d="M37.4986 75.0002C58.2026 75.0002 74.9865 58.2108 74.9865 37.5001C74.9865 16.7894 58.2026 0 37.4986 0C16.7945 0 0.0106201 16.7894 0.0106201 37.5001C0.0106201 58.2108 16.7945 75.0002 37.4986 75.0002Z" fill="#00DF76"/>
<path d="M37.5001 0C37.4831 0 37.4663 0.000585865 37.4493 0.000585865V74.9994C37.4663 74.9994 37.4831 75 37.5001 75C58.2041 75 74.988 58.2107 74.988 37.4999C74.988 16.7891 58.2041 0 37.5001 0Z" fill="#00AB5E"/>
<path d="M16.3055 38.245L31.4683 53.4078C32.1296 54.069 33.2019 54.069 33.8632 53.4078L58.7561 28.5148C59.4174 27.8535 59.4174 26.7812 58.7561 26.1199L54.2252 21.589C53.5639 20.9277 52.4916 20.9277 51.8303 21.589L33.7246 39.6944C33.0633 40.3557 31.991 40.3557 31.3297 39.6944L23.2159 31.5806C22.5677 30.9324 21.5212 30.9177 20.8551 31.5475L16.3395 35.8169C15.6464 36.4723 15.631 37.5705 16.3055 38.245Z" fill="#FFF5F5"/>
<path d="M54.2253 21.5888C53.564 20.9275 52.4917 20.9275 51.8304 21.5888L37.4493 35.9699V49.8217L58.7562 28.5148C59.4175 27.8535 59.4175 26.7812 58.7562 26.1198L54.2253 21.5888Z" fill="#DFEBF1"/>
</g>
<defs>
<clipPath id="clip0">
<rect width="75" height="75" fill="white"/>
</clipPath>
</defs>
</svg>
