<svg width="75" height="75" viewBox="0 0 75 75" fill="none" xmlns="http://www.w3.org/2000/svg">
<path d="M37.5 21.9961L36.0352 38.3789H39.6973V20.5312L37.5 21.9961Z" fill="#008D75"/>
<path d="M35.3027 20.5312V38.3789H37.5V21.9961L35.3027 20.5312Z" fill="#2DB37F"/>
<path d="M37.5 21.9727C49.6352 21.9727 59.4727 12.1352 59.4727 0C47.3375 0 37.5 9.83745 37.5 21.9727Z" fill="#00A085"/>
<path d="M15.5273 0C15.5273 12.1352 25.3648 21.9727 37.5 21.9727C37.5 9.83745 27.6625 0 15.5273 0Z" fill="#5AC779"/>
<path d="M59.4727 65.1123L58.0078 70.0562L59.4727 75H63.8672V65.1123H59.4727Z" fill="#FF7452"/>
<path d="M55.0781 65.1123L53.6133 70.0562L55.0781 75H59.4727V65.1123H55.0781Z" fill="#FB9D46"/>
<path d="M50.6836 62.1826L49.2188 70.0562L50.6836 75H55.0781V62.1826H50.6836Z" fill="#FF7452"/>
<path d="M46.2891 62.1826L44.8242 70.0562L46.2891 75H50.6836V62.1826H46.2891Z" fill="#FB9D46"/>
<path d="M41.8945 62.1826L40.4297 70.0562L41.8945 75H46.2891V62.1826H41.8945Z" fill="#FF7452"/>
<path d="M37.5 62.1826L36.0352 70.0562L37.5 75H41.8945V62.1826H37.5Z" fill="#FB9D46"/>
<path d="M33.1055 62.1826L31.6406 70.0562L33.1055 75H37.5V62.1826H33.1055Z" fill="#FDBA4C"/>
<path d="M28.7109 62.1826L27.2461 70.0562L28.7109 75H33.1055V62.1826H28.7109Z" fill="#FB9D46"/>
<path d="M24.3164 62.1826L22.8516 70.0562L24.3164 75H28.7109V62.1826H24.3164Z" fill="#FDBA4C"/>
<path d="M19.9219 62.1826L18.457 70.0562L19.9219 75H24.3164V62.1826H19.9219Z" fill="#FB9D46"/>
<path d="M19.9219 62.1826H15.5273V75H19.9219V62.1826Z" fill="#FDBA4C"/>
<path d="M63.8672 45.3369L62.4023 50.2808L63.8672 55.2246H68.2617V45.3369H63.8672Z" fill="#FB9D46"/>
<path d="M59.4727 42.4072L58.0078 50.2808L59.4727 55.2246H63.8672V45.3369L59.4727 42.4072Z" fill="#FF7452"/>
<path d="M55.0781 42.4072L53.6133 50.2808L55.0781 55.2246H59.4727V42.4072H55.0781Z" fill="#FB9D46"/>
<path d="M50.6836 42.4072L49.2188 50.2808L50.6836 58.1543H55.0781V42.4072H50.6836Z" fill="#FF7452"/>
<path d="M46.2891 42.4072L44.8242 50.2808L46.2891 58.1543H50.6836V42.4072H46.2891Z" fill="#FB9D46"/>
<path d="M41.8945 42.4072L40.4297 50.2808L41.8945 58.1543H46.2891V42.4072H41.8945Z" fill="#FF7452"/>
<path d="M37.5 42.4072L36.0352 50.2808L37.5 58.1543H41.8945V42.4072H37.5Z" fill="#FB9D46"/>
<path d="M33.1055 42.4072L31.6406 50.2808L33.1055 58.1543H37.5V42.4072H33.1055Z" fill="#FDBA4C"/>
<path d="M28.7109 42.4072L27.2461 50.2808L28.7109 58.1543H33.1055V42.4072H28.7109Z" fill="#FFD652"/>
<path d="M24.3164 42.4072L22.8516 50.2808L24.3164 58.1543H28.7109V42.4072H24.3164Z" fill="#FDBA4C"/>
<path d="M24.3164 42.4072H19.9219V58.1543H24.3164V42.4072Z" fill="#FFD652"/>
<path d="M59.4727 35.4492L58.0078 40.3931L59.4727 45.3369H63.8672V35.4492H59.4727Z" fill="#FB9D46"/>
<path d="M55.0781 35.4492L53.6133 40.3931L55.0781 45.3369H59.4727V35.4492H55.0781Z" fill="#FDBA4C"/>
<path d="M50.6836 35.4492L49.2188 40.3931L50.6836 45.3369H55.0781V35.4492H50.6836Z" fill="#FB9D46"/>
<path d="M46.2891 35.4492L44.8242 40.3931L46.2891 45.3369H50.6836V35.4492H46.2891Z" fill="#FDBA4C"/>
<path d="M41.8945 35.4492L40.4297 40.3931L41.8945 45.3369H46.2891V35.4492H41.8945Z" fill="#FB9D46"/>
<path d="M37.5 35.4492L36.0352 40.3931L37.5 45.3369H41.8945V35.4492H37.5Z" fill="#FDBA4C"/>
<path d="M33.1055 35.4492L31.6406 40.3931L33.1055 45.3369H37.5V35.4492H33.1055Z" fill="#FFD652"/>
<path d="M28.7109 35.4492L27.2461 40.3931L28.7109 45.3369H33.1055V35.4492H28.7109Z" fill="#FBE287"/>
<path d="M24.3164 35.4492L22.8516 40.3931L24.3164 45.3369H28.7109V35.4492H24.3164Z" fill="#FFD652"/>
<path d="M19.9219 35.4492L18.457 40.3931L19.9219 45.3369H24.3164V35.4492H19.9219Z" fill="#FBE287"/>
<path d="M19.9219 35.4492H15.5273V45.3369H19.9219V35.4492Z" fill="#FFD652"/>
<path d="M50.6836 55.2246L49.2188 60.1685L50.6836 65.1123H55.0781V55.2246H50.6836Z" fill="#FB9D46"/>
<path d="M46.2891 55.2246L44.8242 60.1685L46.2891 65.1123H50.6836V55.2246H46.2891Z" fill="#FDBA4C"/>
<path d="M41.8945 55.2246L40.4297 60.1685L41.8945 65.1123H46.2891V55.2246H41.8945Z" fill="#FB9D46"/>
<path d="M37.5 55.2246L36.0352 60.1685L37.5 65.1123H41.8945V55.2246H37.5Z" fill="#FDBA4C"/>
<path d="M33.1055 55.2246L31.6406 60.1685L33.1055 65.1123H37.5V55.2246H33.1055Z" fill="#FFD652"/>
<path d="M28.7109 55.2246L27.2461 60.1685L28.7109 65.1123H33.1055V55.2246H28.7109Z" fill="#FBE287"/>
<path d="M24.3164 55.2246L22.8516 60.1685L24.3164 65.1123H28.7109V55.2246H24.3164Z" fill="#FFD652"/>
<path d="M19.9219 55.2246L18.457 60.1685L19.9219 65.1123H24.3164V55.2246H19.9219Z" fill="#FBE287"/>
<path d="M15.5273 55.2246L14.0625 60.1685L15.5273 65.1123H19.9219V55.2246H15.5273Z" fill="#FFD652"/>
<path d="M11.1328 55.2246L9.66797 60.1685L11.1328 65.1123H15.5273V55.2246H11.1328Z" fill="#FBE287"/>
<path d="M11.1328 55.2246H6.73828V65.1123H11.1328V55.2246Z" fill="#FFD652"/>
</svg>
