<svg width="35" height="35" viewBox="0 0 35 35" fill="none" xmlns="http://www.w3.org/2000/svg">
<path d="M7.77719 16.1343L23.3526 0.559142C23.7129 0.198616 24.1938 0 24.7065 0C25.2193 0 25.7002 0.198616 26.0604 0.559142L27.2074 1.70588C27.9538 2.45311 27.9538 3.66757 27.2074 4.41366L14.1284 17.4927L27.222 30.5863C27.5822 30.9469 27.7811 31.4275 27.7811 31.9399C27.7811 32.453 27.5822 32.9336 27.222 33.2944L26.0749 34.4409C25.7144 34.8014 25.2338 35 24.721 35C24.2083 35 23.7274 34.8014 23.3671 34.4409L7.77719 18.8515C7.4161 18.4898 7.21777 18.0069 7.2189 17.4936C7.21777 16.9783 7.4161 16.4957 7.77719 16.1343Z" fill="white"/>
</svg>
