<svg width="20" height="20" viewBox="0 0 20 20" fill="none" xmlns="http://www.w3.org/2000/svg">
<path d="M19.6803 9.22294L12.4576 2.00007C12.2514 1.79389 11.9766 1.68073 11.6836 1.68073C11.3903 1.68073 11.1157 1.79406 10.9095 2.00007L10.2537 2.656C10.0477 2.86185 9.93422 3.13681 9.93422 3.42998C9.93422 3.72298 10.0477 4.00721 10.2537 4.21306L14.4673 8.43595H1.08048C0.476906 8.43595 0 8.90847 0 9.51221V10.4395C0 11.0432 0.476906 11.5634 1.08048 11.5634H14.5152L10.2539 15.8099C10.0479 16.0161 9.93438 16.2835 9.93438 16.5767C9.93438 16.8695 10.0479 17.1409 10.2539 17.3469L10.9097 18.0008C11.1158 18.2069 11.3905 18.3193 11.6838 18.3193C11.9768 18.3193 12.2516 18.2055 12.4578 17.9993L19.6805 10.7766C19.8871 10.5698 20.0008 10.2937 20 10.0002C20.0006 9.7057 19.8871 9.42944 19.6803 9.22294Z" fill="white"/>
</svg>
