<svg width="40" height="40" viewBox="0 0 40 40" fill="none" xmlns="http://www.w3.org/2000/svg">
<g clip-path="url(#clip0)">
<path d="M20 40C31.0457 40 40 31.0457 40 20C40 8.9543 31.0457 0 20 0C8.9543 0 0 8.9543 0 20C0 31.0457 8.9543 40 20 40Z" fill="#FF641A"/>
<path d="M40.0001 20.0009C40.0001 19.9946 39.9998 19.9883 39.9998 19.9821L29.7907 9.77295L10.2222 30.2413L19.9815 40.0007C19.9877 40.0007 19.9939 40.0009 20.0001 40.0009C31.0458 40.0009 40.0001 31.0466 40.0001 20.0009Z" fill="#EF3800"/>
<path d="M7.00562 20.0006C7.00562 27.1768 12.8231 32.9943 19.9994 32.9943L20.7806 22.76L19.9994 7.00684C12.8231 7.00684 7.00562 12.8243 7.00562 20.0006Z" fill="#FF7635"/>
<path d="M20 7.00684V32.9943C27.1762 32.9943 32.9937 27.1768 32.9937 20.0006C32.9937 12.8243 27.1762 7.00684 20 7.00684Z" fill="#D7481D"/>
<path d="M29.9734 20.6304C30.3099 20.6304 30.5828 20.3576 30.5828 20.021C30.5828 19.6844 30.3099 19.4116 29.9734 19.4116C29.6368 19.4116 29.364 19.6844 29.364 20.021C29.364 20.3576 29.6368 20.6304 29.9734 20.6304Z" fill="#D1D1D1"/>
<path d="M10.0259 20.6304C10.3624 20.6304 10.6353 20.3575 10.6353 20.021C10.6353 19.6844 10.3624 19.4116 10.0259 19.4116C9.68933 19.4116 9.4165 19.6844 9.4165 20.021C9.4165 20.3575 9.68933 20.6304 10.0259 20.6304Z" fill="white"/>
<path d="M27.0522 13.5772C27.3888 13.5772 27.6616 13.3043 27.6616 12.9678C27.6616 12.6312 27.3888 12.3584 27.0522 12.3584C26.7157 12.3584 26.4429 12.6312 26.4429 12.9678C26.4429 13.3043 26.7157 13.5772 27.0522 13.5772Z" fill="#D1D1D1"/>
<path d="M12.947 27.6811C13.2836 27.6811 13.5564 27.4083 13.5564 27.0718C13.5564 26.7352 13.2836 26.4624 12.947 26.4624C12.6105 26.4624 12.3376 26.7352 12.3376 27.0718C12.3376 27.4083 12.6105 27.6811 12.947 27.6811Z" fill="white"/>
<path d="M12.947 13.5771C13.2836 13.5771 13.5564 13.3043 13.5564 12.9678C13.5564 12.6312 13.2836 12.3584 12.947 12.3584C12.6105 12.3584 12.3376 12.6312 12.3376 12.9678C12.3376 13.3043 12.6105 13.5771 12.947 13.5771Z" fill="white"/>
<path d="M27.0522 27.6811C27.3888 27.6811 27.6616 27.4083 27.6616 27.0718C27.6616 26.7352 27.3888 26.4624 27.0522 26.4624C26.7157 26.4624 26.4429 26.7352 26.4429 27.0718C26.4429 27.4083 26.7157 27.6811 27.0522 27.6811Z" fill="#D1D1D1"/>
<path d="M8.17749 20.0006C8.17749 13.482 13.4808 8.17871 19.9994 8.17871L20.7806 7.00684L19.9994 5.83496C12.1884 5.83496 5.83374 12.1896 5.83374 20.0006C5.83374 27.8114 12.1884 34.1661 19.9994 34.1661L20.7806 32.9943L19.9994 31.8224C13.4808 31.8225 8.17749 26.5192 8.17749 20.0006Z" fill="white"/>
<path d="M20 5.83496V8.17871C26.5186 8.17871 31.8219 13.482 31.8219 20.0006C31.8219 26.5192 26.5186 31.8224 20 31.8224V34.1661C27.8109 34.1661 34.1656 27.8114 34.1656 20.0006C34.1656 12.1896 27.8109 5.83496 20 5.83496Z" fill="#D1D1D1"/>
<path d="M19.2188 12.3583V20C19.2188 20.3158 19.4088 20.6006 19.7005 20.7216C19.7973 20.7618 19.8991 20.7814 19.9998 20.7814H20L20.3906 15.6157L20 11.5771C19.5685 11.5771 19.2188 11.9268 19.2188 12.3583Z" fill="white"/>
<path d="M23.7236 17.3905C24.0291 17.0859 24.0298 16.5912 23.7252 16.2857C23.4205 15.9801 22.9259 15.9794 22.6203 16.2841L20.7812 18.1179V12.3584C20.7812 11.9269 20.4315 11.5771 20 11.5771V20.7814C20.2029 20.7814 20.4023 20.7023 20.5516 20.5534L23.7236 17.3905Z" fill="#D1D1D1"/>
<path d="M18.4131 20.0015C18.4131 20.8774 19.1232 21.5874 19.999 21.5874L20.4678 20.0215L19.999 18.4155C19.1232 18.4155 18.4131 19.1256 18.4131 20.0015Z" fill="white"/>
<path d="M19.3896 10.0479C19.3896 10.3844 19.6625 10.6572 19.999 10.6572L20.3115 10.0479L19.999 9.43848C19.6625 9.43848 19.3896 9.71129 19.3896 10.0479Z" fill="white"/>
<path d="M20.6082 10.0479C20.6082 9.71129 20.3353 9.43848 19.9988 9.43848V10.6572C20.3353 10.6572 20.6082 10.3844 20.6082 10.0479Z" fill="#D1D1D1"/>
<path d="M19.3896 29.9966C19.3896 30.3331 19.6625 30.606 19.999 30.606L20.3897 30.0747L19.999 29.3872C19.6625 29.3872 19.3896 29.66 19.3896 29.9966Z" fill="white"/>
<path d="M19.9988 30.606C20.3353 30.606 20.6082 30.3331 20.6082 29.9966C20.6082 29.66 20.3353 29.3872 19.9988 29.3872V30.606Z" fill="#D1D1D1"/>
<path d="M21.5847 20.0015C21.5847 19.1256 20.8746 18.4155 19.9988 18.4155V21.5874C20.8747 21.5874 21.5847 20.8774 21.5847 20.0015Z" fill="#D1D1D1"/>
</g>
<defs>
<clipPath id="clip0">
<rect width="40" height="40" fill="white"/>
</clipPath>
</defs>
</svg>
