<svg width="40" height="40" viewBox="0 0 40 40" fill="none" xmlns="http://www.w3.org/2000/svg">
<path d="M20 40C31.0457 40 40 31.0457 40 20C40 8.9543 31.0457 0 20 0C8.9543 0 0 8.9543 0 20C0 31.0457 8.9543 40 20 40Z" fill="#397CFF"/>
<path d="M10.601 7.98489L10.6004 7.9852C8.28484 9.19333 7.31336 11.9869 8.37429 14.3735C9.9014 17.809 11.9519 20.9515 14.4265 23.7034L16.2967 25.5736L28.7243 38.0012C31.8352 36.4907 34.4948 34.1973 36.449 31.3775L31.8633 26.7918C31.6866 26.5314 31.4595 26.2997 31.1851 26.1136L13.8865 8.81512C13.1604 7.7452 11.7473 7.38676 10.601 7.98489Z" fill="#0056FF"/>
<path d="M27.3119 23.4855C26.6719 23.0512 25.8312 23.0534 25.1935 23.491L24.2754 24.1212C23.2527 24.8231 21.8927 24.7849 20.9098 24.0285C19.9834 23.3154 19.0991 22.5509 18.2594 21.7407C17.4492 20.901 16.6848 20.0169 15.9717 19.0904C15.2152 18.1075 15.1771 16.7475 15.879 15.7248L16.5091 14.8067C16.9467 14.169 16.949 13.3282 16.5147 12.6882L13.8866 8.81519C13.1605 7.74535 11.7474 7.38691 10.6011 7.98496L10.6004 7.98527C8.28484 9.1934 7.31336 11.987 8.37429 14.3735C9.9014 17.8091 11.9519 20.9515 14.4265 23.7035L16.2967 25.5737C19.0487 28.0482 22.1912 30.0988 25.6266 31.6259C28.0133 32.6868 30.8068 31.7153 32.0149 29.3998L32.0152 29.3991C32.6133 28.2528 32.2549 26.8396 31.185 26.1136L27.3119 23.4855Z" fill="white"/>
</svg>
