<svg width="40" height="40" viewBox="0 0 40 40" fill="none" xmlns="http://www.w3.org/2000/svg">
<g clip-path="url(#clip0)">
<path d="M20 40C31.0457 40 40 31.0457 40 20C40 8.9543 31.0457 0 20 0C8.9543 0 0 8.9543 0 20C0 31.0457 8.9543 40 20 40Z" fill="#77FF00"/>
<path d="M28.1439 11.8614C26.9843 11.5714 25.2789 10.5699 24.1751 10.1684C19.8653 8.82158 14.0741 9.89901 12.4579 14.8822C12.3232 15.0169 12.0539 15.0169 11.9192 15.0169C8.68682 18.7879 10.8417 23.3671 10.5724 27.5421C10.4804 29.0139 9.70651 30.3153 8.71057 31.4162L17.092 39.7889C18.0415 39.9271 19.0121 40 20 40C29.8778 40 38.0822 32.8387 39.7068 23.4249L28.1439 11.8614Z" fill="#68D500"/>
<path d="M19.4404 8.47246C13.3444 8.76246 8.53382 13.8393 8.55218 19.9421C8.5578 21.8008 9.00655 23.5553 9.79827 25.1057L8.58288 31.0053C8.51718 31.3245 8.80499 31.604 9.12202 31.5288L14.9029 30.1593C16.3881 30.8992 18.0563 31.3264 19.8218 31.3533C26.0525 31.4486 31.2477 26.5014 31.4421 20.2729C31.6501 13.5965 26.1399 8.15332 19.4404 8.47246ZM26.3383 26.245C24.6454 27.9379 22.3943 28.8704 20 28.8704C18.5981 28.8704 17.2558 28.5558 16.0105 27.9355L15.2056 27.5344L11.6611 28.374L12.4071 24.7525L12.0106 23.9757C11.3641 22.7096 11.0362 21.3407 11.0362 19.9066C11.0362 17.5122 11.9687 15.2614 13.6616 13.5683C15.3394 11.8904 17.6271 10.943 20.0001 10.943C22.3942 10.943 24.6453 11.8754 26.3382 13.5683C28.0311 15.2612 28.9635 17.5123 28.9635 19.9064C28.9637 22.2795 28.0162 24.5672 26.3383 26.245Z" fill="white"/>
<path d="M25.5558 22.3893L23.3383 21.7527C23.047 21.6691 22.733 21.7519 22.5205 21.9683L21.9782 22.5206C21.7496 22.7538 21.4027 22.8285 21.1001 22.7061C20.0511 22.2816 17.8444 20.3195 17.2812 19.3384C17.1184 19.0553 17.1454 18.7016 17.3451 18.443L17.8183 17.8306C18.0038 17.5907 18.0429 17.2683 17.9203 16.9909L16.9874 14.8809C16.764 14.3756 16.1182 14.2284 15.6962 14.5853C15.0774 15.1088 14.3431 15.9041 14.254 16.7853C14.0966 18.339 14.763 20.2974 17.2823 22.649C20.193 25.366 22.524 25.7247 24.0419 25.3571C24.9027 25.1488 25.5907 24.313 26.0246 23.6285C26.3208 23.1616 26.0867 22.5419 25.5558 22.3893Z" fill="white"/>
<path d="M27.8128 11.5397L26.0767 13.3192C26.165 13.4008 26.253 13.483 26.3384 13.5685C28.0314 15.2614 28.9638 17.5125 28.9638 19.9066C28.9638 22.2796 28.0163 24.5672 26.3384 26.2452C24.6456 27.938 22.3945 28.8705 20.0002 28.8705C18.5983 28.8705 17.256 28.5559 16.0106 27.9356L15.2058 27.5345L11.6613 28.3741L11.7345 28.0184L8.59595 31.235C8.66517 31.443 8.8854 31.5846 9.12204 31.5286L14.9029 30.1591C16.3881 30.899 18.0563 31.3262 19.8218 31.3531C26.0525 31.4484 31.2478 26.5012 31.4421 20.2727C31.5495 16.8248 30.1317 13.7058 27.8128 11.5397Z" fill="#D1D1D1"/>
<path d="M25.5559 22.3892L23.3384 21.7526C23.047 21.669 22.733 21.7518 22.5206 21.9682L21.9782 22.5205C21.7496 22.7537 21.4027 22.8284 21.1001 22.706C20.4941 22.4608 19.5024 21.7025 18.6638 20.9166L17.1222 22.4967C17.1751 22.5473 17.2278 22.5979 17.2823 22.6489C20.1931 25.3659 22.5241 25.7246 24.042 25.357C24.9028 25.1487 25.5908 24.3129 26.0247 23.6284C26.3208 23.1615 26.0867 22.5418 25.5559 22.3892Z" fill="#D1D1D1"/>
</g>
<defs>
<clipPath id="clip0">
<rect width="40" height="40" fill="white"/>
</clipPath>
</defs>
</svg>
