<svg width="45" height="45" viewBox="0 0 45 45" fill="none" xmlns="http://www.w3.org/2000/svg">
<path d="M45 22.5002C45 19.7323 44.4755 17.0922 43.5613 14.6434C43.3194 22.7036 35.1272 28.9441 30.3175 33.0738H42.3564C44.0393 29.9206 45 26.3233 45 22.5002ZM36.2968 4.75243C32.485 1.78466 27.7058 0 22.5005 0C10.0739 0 0 10.0742 0 22.5002C0 34.9261 10.0739 45 22.5005 45C28.1908 45 33.3721 42.8709 37.3344 39.3867H21.0448L20.9951 34.6029C30.8102 26.0702 36.827 20.2996 36.827 14.7258C36.827 12.6543 36.038 10.0403 32.4872 10.0403C29.6756 10.0403 26.9632 11.669 27.4562 18.4746H21.7355C20.3049 10.5839 24.5958 4.31937 32.7823 4.31937C34.0515 4.31937 35.2256 4.47088 36.2968 4.75243Z" fill="#A3C626"/>
</svg>
