<svg width="45" height="45" viewBox="0 0 45 45" fill="none" xmlns="http://www.w3.org/2000/svg">
<path d="M42.1875 16.8749V40.3124C42.1942 41.2349 41.9195 42.1375 41.4 42.8999C41.2332 43.1638 41.0383 43.409 40.8188 43.6311L22.2188 25.0311L21.5625 24.3749L34.3688 11.5686L35.175 12.0749L41.7375 16.0686C42.0168 16.2416 42.1869 16.5465 42.1875 16.8749Z" fill="#CFD8DC"/>
<path d="M34.3687 11.5688L20.9063 25.0312L2.30628 43.6312C2.08673 43.4091 1.89187 43.1639 1.72506 42.8999C1.20562 42.1376 0.930878 41.235 0.937558 40.3125V10.3125C0.937558 7.72365 3.03621 5.625 5.62502 5.625H24.3749C24.5454 5.6308 24.7122 5.67571 24.8625 5.75622L33.5625 11.0624L34.3687 11.5688Z" fill="#4CAF50"/>
<path d="M40.8188 43.6311C40.5968 43.8508 40.3517 44.0457 40.0875 44.2124C39.3252 44.7319 38.4225 45.0066 37.5 44.9999H5.62508C4.70258 45.0066 3.79995 44.7319 3.03758 44.2124C2.77347 44.0456 2.52835 43.8508 2.30634 43.6311L20.9063 25.0312L21.5626 24.3749L22.2189 25.0312L40.8188 43.6311Z" fill="#2196F3"/>
<path d="M41.4 42.9C41.0682 43.4317 40.6193 43.8806 40.0876 44.2124L20.9063 25.0312C20.5476 24.6651 20.5535 24.0775 20.9196 23.7187C21.2805 23.3651 21.8579 23.3651 22.2188 23.7187L41.4 42.9Z" fill="#FAFAFA"/>
<path d="M35.1751 12.0751L22.2188 25.0313L3.03763 44.2125C2.50589 43.8807 2.05695 43.4318 1.72516 42.9001L33.5626 11.0626L35.1751 12.0751Z" fill="#FFC107"/>
<path d="M9.37511 16.875C7.30406 16.875 5.62509 15.1961 5.62509 13.125C5.62509 11.054 7.30406 9.375 9.37511 9.375C11.4462 9.375 13.1251 11.054 13.1251 13.125C13.1251 15.1961 11.4462 16.875 9.37511 16.875ZM9.37511 11.2501C8.33959 11.2501 7.50015 12.0895 7.50015 13.125C7.50015 14.1605 8.33959 15 9.37511 15C10.4106 15 11.2501 14.1605 11.2501 13.125C11.2501 12.0895 10.4106 11.2501 9.37511 11.2501Z" fill="#FAFAFA"/>
<path d="M13.1251 11.2501H9.37512C8.85736 11.2501 8.43759 10.8303 8.43759 10.3125C8.43759 9.79477 8.85736 9.375 9.37512 9.375H13.1251C13.6429 9.375 14.0627 9.79477 14.0627 10.3125C14.0627 10.8303 13.6429 11.2501 13.1251 11.2501Z" fill="#FAFAFA"/>
<path d="M9.37512 24.375C7.0599 24.6458 4.96363 22.9883 4.69292 20.6731C4.69108 20.6571 4.68923 20.6411 4.68756 20.6251C4.68756 18.872 6.35256 17.6889 9.64134 17.0964C9.46564 16.7354 9.37459 16.3391 9.37512 15.9376C9.37512 15.4199 9.79488 15.0001 10.3126 15.0001C10.8304 15.0001 11.2502 15.4199 11.2502 15.9376C11.2502 16.3633 11.6383 16.7664 12.2758 17.3833C13.3088 18.1575 13.9597 19.3382 14.0627 20.6251C14.0626 23.9214 11.8126 24.375 9.37512 24.375ZM11.0251 18.7838C7.74009 19.1982 6.56262 20.0269 6.56262 20.625C6.56262 21.0001 7.06324 22.5 9.37512 22.5C12.062 22.5 12.1876 21.8569 12.1876 20.625C12.1876 19.9688 11.7507 19.4869 11.0251 18.7838Z" fill="#FAFAFA"/>
<path d="M33.75 0C28.0576 0.00720702 23.4448 4.62005 23.4376 10.3125C23.4406 10.8789 23.4965 11.4439 23.6045 11.9999C23.8304 13.4536 24.3725 14.8399 25.1926 16.0612C25.6275 16.8112 26.1301 17.5912 26.6607 18.4237C29.7093 22.8002 31.8109 27.7648 32.8313 32.9999C32.9343 33.5073 33.4292 33.8351 33.9366 33.7321C34.3056 33.6572 34.5939 33.3688 34.6688 32.9999C35.6884 27.7642 37.7895 22.799 40.8376 18.4218C41.372 17.5911 41.8708 16.8168 42.2682 16.1211C43.1036 14.8885 43.6578 13.4873 43.892 12.0167C44.0015 11.4551 44.0586 10.8845 44.0626 10.3124C44.0553 4.62005 39.4425 0.00720702 33.75 0Z" fill="#F44336"/>
<path d="M33.7501 14.9999C36.3389 14.9999 38.4375 12.9013 38.4375 10.3125C38.4375 7.72365 36.3389 5.625 33.7501 5.625C31.1612 5.625 29.0626 7.72365 29.0626 10.3125C29.0626 12.9013 31.1612 14.9999 33.7501 14.9999Z" fill="#C62828"/>
</svg>
