<svg width="45" height="45" viewBox="0 0 45 45" fill="none" xmlns="http://www.w3.org/2000/svg">
<path d="M22.4999 44.9999C34.9263 44.9999 44.9999 34.9263 44.9999 22.4999C44.9999 10.0736 34.9263 0 22.4999 0C10.0736 0 0 10.0736 0 22.4999C0 34.9263 10.0736 44.9999 22.4999 44.9999Z" fill="#7BA8FF"/>
<path d="M34.6188 10.2711L34.6177 10.2723C33.9748 9.63885 33.1997 9.13331 32.3304 8.80777V8.80671C32.1314 8.73218 31.8386 8.63955 31.5996 8.58084V8.58154C31.0827 8.45463 30.5451 8.39047 30.0318 8.39038H30.0285C27.7763 8.39038 17.2298 8.39038 14.9703 8.39038H14.9676C12.1803 8.39038 9.77687 10.1432 8.84287 12.6338H8.84199C8.76983 12.8253 8.67412 13.126 8.61067 13.3881H8.61102C8.49237 13.8765 8.42566 14.4012 8.42566 14.9323V14.935C8.42566 15.185 8.42566 30.0982 8.42566 30.2002C8.42566 31.9333 9.11462 33.5044 10.2321 34.6579L10.2304 34.6597L20.4789 44.9082C21.1448 44.9674 21.8184 44.9995 22.4997 44.9995C34.926 44.9995 44.9994 34.9261 44.9994 22.4998C44.9994 21.849 44.9703 21.2052 44.9161 20.5684L34.6188 10.2711Z" fill="#4B88FF"/>
<path d="M36.5737 29.499C36.5737 33.4257 33.3904 36.609 29.4637 36.609H14.8346C11.2951 36.609 8.42566 33.7397 8.42566 30.2001V14.9349C8.42566 11.3204 11.3558 8.39026 14.9703 8.39026H30.0285C33.6434 8.39026 36.5737 11.3207 36.5737 14.9355V29.499Z" fill="#D7CCBD"/>
<path d="M31.5995 8.58081V13.3882H36.3887C35.8163 11.0238 33.9605 9.16167 31.5995 8.58081Z" fill="#EBACCB"/>
<path d="M28.5819 13.3881V8.39038H14.9677C11.8868 8.39038 9.30496 10.5206 8.61072 13.3882H28.5819V13.3881Z" fill="#8DC652"/>
<path d="M18.3034 25.6469C15.5176 23.027 10.9126 22.5356 8.42566 22.4746V27.2739C10.7648 27.2213 13.5791 27.6342 15.5426 29.4808C17.7514 31.5581 19.1692 34.5881 22.3867 36.6089H30.0317C31.732 36.6089 33.2805 35.9599 34.4438 34.8965C23.4394 35.1071 21.9511 29.0774 18.3034 25.6469Z" fill="#F6D433"/>
<path d="M32.3304 8.80671C31.6151 8.53821 30.8409 8.39038 30.0319 8.39038H27.6626V12.6338H8.84199C8.57349 13.3489 8.42566 14.1232 8.42566 14.9323V17.3015H27.6625V36.6091H30.0317C30.8407 36.6091 31.6149 36.4612 32.3302 36.1927V30.0318H36.5736V25.364H32.3302V17.3016H36.5736V14.9323C36.5736 14.1233 36.4257 13.349 36.1572 12.6339H32.3302L32.3304 8.80671Z" fill="white"/>
<path d="M29.9968 30.6917C31.5592 30.6917 32.8258 29.4251 32.8258 27.8627C32.8258 26.3003 31.5592 25.0337 29.9968 25.0337C28.4344 25.0337 27.1678 26.3003 27.1678 27.8627C27.1678 29.4251 28.4344 30.6917 29.9968 30.6917Z" fill="#497FC1"/>
<path d="M8.42566 14.9324V16.3115H28.7469V24.849C29.1339 24.6952 29.5552 24.6097 29.9963 24.6097C30.4375 24.6097 30.8587 24.6952 31.2458 24.849V16.3115H31.2685V13.8125H8.52313C8.4602 14.1766 8.42566 14.5503 8.42566 14.9324Z" fill="#5F98D1"/>
<path d="M29.9964 28.1708L28.7242 29.4874L29.9964 25.9092L31.2687 29.4874L29.9964 28.1708Z" fill="white"/>
<path d="M20.8024 20.2625C19.8175 20.2625 18.8998 19.9255 18.1591 19.3629C17.4035 19.9674 16.4522 20.3332 15.4274 20.3332C14.4046 20.3332 13.4545 19.9692 12.6996 19.3668V23.278C12.6996 25.5739 15.0925 28.2837 18.0442 28.2837C20.996 28.2837 23.3889 25.5739 23.3889 23.278V19.4048C22.6582 19.942 21.7622 20.2625 20.8024 20.2625Z" fill="#497FC1"/>
<path d="M23.3889 21.8726V19.4048C22.6582 19.942 21.7623 20.2625 20.8024 20.2625C19.8175 20.2625 18.8998 19.9255 18.1591 19.3629C17.4035 19.9674 16.4522 20.3332 15.4274 20.3332C14.4046 20.3332 13.4545 19.9692 12.6996 19.3668V21.8726H23.3889Z" fill="#E25F3F"/>
<path d="M16.7436 25.156C16.7996 25.156 16.8439 25.1717 16.8768 25.2032C16.9098 25.2347 16.9261 25.2763 16.9261 25.3281V25.6386H14.8444V25.4665C14.8444 25.4316 14.8517 25.3949 14.8663 25.3564C14.8811 25.318 14.9045 25.2833 14.9367 25.2526L15.858 24.3291C15.9349 24.2509 16.0038 24.1759 16.0647 24.1047C16.1255 24.0334 16.1762 23.9626 16.2168 23.8928C16.2574 23.8227 16.2885 23.7518 16.3103 23.6798C16.3319 23.6077 16.3428 23.5318 16.3428 23.4521C16.3428 23.3793 16.3323 23.3153 16.3113 23.26C16.2903 23.2048 16.2606 23.1583 16.2222 23.1205C16.1838 23.0827 16.1376 23.0544 16.0837 23.0356C16.0298 23.0168 15.9693 23.0073 15.9022 23.0073C15.8406 23.0073 15.7835 23.0161 15.7312 23.0335C15.6788 23.051 15.6321 23.0755 15.5917 23.107C15.5511 23.1385 15.5168 23.1752 15.4889 23.2171C15.4609 23.2591 15.4399 23.3054 15.4258 23.3557C15.402 23.4201 15.3713 23.4627 15.3336 23.4837C15.2958 23.5048 15.2412 23.5096 15.1699 23.4984L14.8971 23.4501C14.9181 23.3047 14.9586 23.177 15.0188 23.0671C15.0789 22.9573 15.1542 22.8657 15.2444 22.7922C15.3347 22.7187 15.4381 22.6635 15.5549 22.6264C15.6718 22.5893 15.7973 22.5708 15.9316 22.5708C16.0715 22.5708 16.1995 22.5915 16.3156 22.6327C16.4317 22.674 16.5311 22.7323 16.6136 22.8078C16.6962 22.8834 16.7604 22.9744 16.8068 23.0806C16.8529 23.1871 16.876 23.3052 16.876 23.4353C16.876 23.5473 16.8596 23.6508 16.8267 23.7459C16.7938 23.841 16.7498 23.9319 16.6945 24.0187C16.6392 24.1054 16.5746 24.1894 16.5005 24.2705C16.4263 24.3517 16.3487 24.4342 16.2676 24.5182L15.5833 25.2169C15.6491 25.1973 15.7146 25.1824 15.7796 25.1717C15.8446 25.1611 15.9065 25.156 15.9654 25.156H16.7437H16.7436Z" fill="white"/>
<path d="M18.8484 24.0563C19.033 24.1165 19.1695 24.2085 19.2576 24.3324C19.3458 24.4562 19.3898 24.6077 19.3898 24.7867C19.3898 24.921 19.3643 25.0427 19.3131 25.1518C19.262 25.2609 19.1904 25.354 19.0981 25.4309C19.0057 25.5078 18.8948 25.5673 18.7654 25.6093C18.636 25.6512 18.4929 25.6723 18.3363 25.6723C18.1795 25.6723 18.0365 25.6513 17.9071 25.6093C17.7776 25.5674 17.6668 25.5079 17.5744 25.4309C17.4821 25.354 17.4104 25.2609 17.3594 25.1518C17.3083 25.0427 17.2827 24.921 17.2827 24.7867C17.2827 24.6077 17.3268 24.4562 17.4149 24.3324C17.5031 24.2085 17.6394 24.1165 17.8241 24.0563C17.6773 23.9948 17.567 23.9074 17.4936 23.7941C17.4202 23.6807 17.3835 23.5444 17.3835 23.3849C17.3835 23.2703 17.4069 23.1631 17.4538 23.0638C17.5007 22.9645 17.5662 22.878 17.6501 22.8046C17.734 22.7312 17.8344 22.6738 17.9513 22.6326C18.0681 22.5913 18.1965 22.5707 18.3363 22.5707C18.4762 22.5707 18.6046 22.5913 18.7214 22.6326C18.8382 22.6739 18.9386 22.7312 19.0226 22.8046C19.1065 22.878 19.172 22.9645 19.2188 23.0638C19.2657 23.1631 19.2892 23.2702 19.2892 23.3849C19.2892 23.5444 19.2524 23.6808 19.179 23.7941C19.1054 23.9074 18.9952 23.9948 18.8484 24.0563ZM18.3363 25.2671C18.4215 25.2671 18.4965 25.2549 18.5607 25.2304C18.6251 25.2059 18.6793 25.172 18.7233 25.1286C18.7674 25.0852 18.8006 25.0335 18.823 24.9733C18.8453 24.9133 18.8566 24.8481 18.8566 24.7782C18.8566 24.6116 18.8105 24.4858 18.7181 24.4005C18.6258 24.3152 18.4985 24.2725 18.3362 24.2725C18.1737 24.2725 18.0466 24.3151 17.9542 24.4005C17.8619 24.4858 17.8158 24.6118 17.8158 24.7782C17.8158 24.8482 17.8269 24.9133 17.8493 24.9733C17.8717 25.0334 17.905 25.0852 17.949 25.1286C17.9931 25.172 18.0473 25.2059 18.1116 25.2304C18.176 25.2549 18.2509 25.2671 18.3363 25.2671ZM18.3363 22.9609C18.2593 22.9609 18.1928 22.9728 18.1368 22.9965C18.0808 23.0202 18.0343 23.0521 17.9973 23.092C17.9603 23.1319 17.9329 23.1777 17.9155 23.2295C17.898 23.2813 17.8892 23.3359 17.8892 23.3931C17.8892 23.4533 17.8965 23.5118 17.9112 23.5683C17.926 23.625 17.9508 23.6753 17.9857 23.7194C18.0206 23.7635 18.067 23.7987 18.1243 23.8254C18.1817 23.8521 18.2523 23.8653 18.3362 23.8653C18.42 23.8653 18.4908 23.852 18.5481 23.8254C18.6055 23.7987 18.6516 23.7635 18.6866 23.7194C18.7215 23.6753 18.7463 23.6249 18.7611 23.5683C18.7758 23.5117 18.7831 23.4533 18.7831 23.3931C18.7831 23.3358 18.7739 23.2813 18.7557 23.2295C18.7376 23.1777 18.7102 23.1319 18.6738 23.092C18.6374 23.0521 18.5912 23.0203 18.5354 22.9965C18.4797 22.9728 18.4132 22.9609 18.3363 22.9609Z" fill="white"/>
<path d="M21.8827 24.1214C21.8827 24.3858 21.8544 24.6156 21.7977 24.8108C21.7411 25.006 21.6627 25.1672 21.5627 25.2945C21.4626 25.4218 21.3445 25.5166 21.2081 25.5788C21.0717 25.6412 20.9245 25.6723 20.7664 25.6723C20.6082 25.6723 20.4617 25.6412 20.3267 25.5788C20.1916 25.5166 20.0745 25.4218 19.9752 25.2945C19.8759 25.1672 19.7982 25.006 19.7423 24.8108C19.6863 24.6157 19.6583 24.3858 19.6583 24.1214C19.6583 23.8556 19.6863 23.6254 19.7423 23.431C19.7982 23.2366 19.8759 23.0756 19.9752 22.9484C20.0745 22.8211 20.1916 22.7263 20.3267 22.664C20.4617 22.6018 20.6082 22.5707 20.7664 22.5707C20.9245 22.5707 21.0717 22.6018 21.2081 22.664C21.3445 22.7263 21.4627 22.8211 21.5627 22.9484C21.6627 23.0757 21.7411 23.2366 21.7977 23.431C21.8544 23.6255 21.8827 23.8557 21.8827 24.1214ZM21.3476 24.1214C21.3476 23.9018 21.3315 23.7198 21.2993 23.5758C21.2671 23.4317 21.2241 23.3169 21.1703 23.2316C21.1164 23.1463 21.0545 23.0865 20.9845 23.0521C20.9144 23.0179 20.8418 23.0007 20.7663 23.0007C20.6921 23.0007 20.6205 23.0178 20.5512 23.0521C20.4819 23.0864 20.4207 23.1463 20.3676 23.2316C20.3144 23.3169 20.2721 23.4316 20.2407 23.5758C20.2092 23.7199 20.1935 23.9018 20.1935 24.1214C20.1935 24.341 20.2092 24.523 20.2407 24.667C20.2721 24.8111 20.3145 24.9258 20.3676 25.0113C20.4207 25.0965 20.4819 25.1564 20.5512 25.1906C20.6205 25.2248 20.6921 25.2421 20.7663 25.2421C20.8418 25.2421 20.9145 25.225 20.9845 25.1906C21.0545 25.1564 21.1163 25.0965 21.1703 25.0113C21.2241 24.9259 21.2671 24.8111 21.2993 24.667C21.3315 24.523 21.3476 24.3411 21.3476 24.1214Z" fill="white"/>
<path d="M18.1673 20.0575C18.9614 20.563 19.8643 20.8282 20.8024 20.8282C21.5048 20.8282 22.1892 20.6785 22.8231 20.3902V23.278C22.8231 24.2598 22.3 25.3674 21.4239 26.2411C20.4689 27.1933 19.2686 27.7178 18.0442 27.7178C16.8198 27.7178 15.6195 27.1933 14.6645 26.2411C13.7884 25.3674 13.2654 24.2598 13.2654 23.278V20.3913C13.9394 20.7224 14.6808 20.8989 15.4276 20.8989C16.3945 20.899 17.3526 20.6027 18.1673 20.0575ZM18.1591 19.3629C17.4035 19.9674 16.4522 20.3332 15.4274 20.3332C14.4046 20.3332 13.4545 19.9692 12.6996 19.3668V23.278C12.6996 25.5739 15.0925 28.2837 18.0442 28.2837C20.996 28.2837 23.3889 25.5739 23.3889 23.278V19.4048C22.6582 19.942 21.7623 20.2625 20.8024 20.2625C19.8176 20.2625 18.8998 19.9256 18.1591 19.3629Z" fill="white"/>
<path d="M13.0225 21.8632H23.0303" stroke="white" stroke-width="6.53" stroke-miterlimit="10"/>
<path d="M36.5737 29.499C36.5737 33.4257 33.3904 36.609 29.4637 36.609H14.8346C11.2951 36.609 8.42566 33.7397 8.42566 30.2001V14.9349C8.42566 11.3204 11.3558 8.39026 14.9703 8.39026H30.0285C33.6434 8.39026 36.5737 11.3207 36.5737 14.9355V29.499Z" fill="#D7CCBD"/>
<path d="M31.5995 8.58081V13.3882H36.3887C35.8163 11.0238 33.9605 9.16167 31.5995 8.58081Z" fill="#8DC652"/>
<path d="M28.5819 13.3881V8.39038H14.9677C11.8868 8.39038 9.30496 10.5206 8.61072 13.3882H28.5819V13.3881Z" fill="#8DC652"/>
<path d="M18.3034 25.6469C15.5176 23.027 10.9126 22.5356 8.42566 22.4746V27.2739C10.7648 27.2213 13.5791 27.6342 15.5426 29.4808C17.7514 31.5581 19.1692 34.5881 22.3867 36.6089H30.0317C31.732 36.6089 33.2805 35.9599 34.4438 34.8965C23.4394 35.1071 21.9511 29.0774 18.3034 25.6469Z" fill="#F6D433"/>
<path d="M32.3304 8.80671C31.6151 8.53821 30.8409 8.39038 30.0319 8.39038H27.6626V12.6338H8.84199C8.57349 13.3489 8.42566 14.1232 8.42566 14.9323V17.3015H27.6625V36.6091H30.0317C30.8407 36.6091 31.6149 36.4612 32.3302 36.1927V30.0318H36.5736V25.364H32.3302V17.3016H36.5736V14.9323C36.5736 14.1233 36.4257 13.349 36.1572 12.6339H32.3302L32.3304 8.80671Z" fill="white"/>
<path d="M29.9968 30.6917C31.5592 30.6917 32.8258 29.4251 32.8258 27.8627C32.8258 26.3003 31.5592 25.0337 29.9968 25.0337C28.4344 25.0337 27.1678 26.3003 27.1678 27.8627C27.1678 29.4251 28.4344 30.6917 29.9968 30.6917Z" fill="#497FC1"/>
<path d="M8.42566 14.9324V16.3115H28.7469V24.849C29.1339 24.6952 29.5552 24.6097 29.9963 24.6097C30.4375 24.6097 30.8587 24.6952 31.2458 24.849V16.3115H31.2685V13.8125H8.52313C8.4602 14.1766 8.42566 14.5503 8.42566 14.9324Z" fill="#5F98D1"/>
<path d="M29.9964 28.1708L28.7242 29.4874L29.9964 25.9092L31.2687 29.4874L29.9964 28.1708Z" fill="white"/>
</svg>
